<!DOCTYPE svg PUBLIC "-//W3C//DTD SVG 1.1//EN" "http://www.w3.org/Graphics/SVG/1.1/DTD/svg11.dtd">
<!-- Uploaded to: SVG Repo, www.svgrepo.com, Transformed by: SVG Repo Mixer Tools -->
<svg height="800px" width="800px" version="1.1" id="Layer_1" xmlns="http://www.w3.org/2000/svg" xmlns:xlink="http://www.w3.org/1999/xlink" viewBox="-85.61 -85.61 674.83 674.83" xml:space="preserve" fill="#000000">
<g id="SVGRepo_bgCarrier" stroke-width="0"/>
<g id="SVGRepo_tracerCarrier" stroke-linecap="round" stroke-linejoin="round"/>
<g id="SVGRepo_iconCarrier"> <g transform="translate(1 1)"> <g> <path style="fill:#FFE100;" d="M251.007,217.229c-5.036,0-8.393-3.357-8.393-8.393c0-5.036,3.357-8.393,8.393-8.393 c48.682,0,92.328-40.289,92.328-83.934c0-5.036,3.357-8.393,8.393-8.393c5.036,0,8.393,3.357,8.393,8.393 C360.122,170.226,308.922,217.229,251.007,217.229z"/> <path style="fill:#FFE100;" d="M402.089,57.754c-5.036,0-8.393-3.357-8.393-8.393C393.695,21.662,416.358-1,444.056-1 c5.036,0,8.393,3.357,8.393,8.393s-3.357,8.393-8.393,8.393c-18.466,0-33.574,15.108-33.574,33.574 C410.482,54.397,407.125,57.754,402.089,57.754z"/> <path style="fill:#FFE100;" d="M116.712,150.082c-5.036,0-8.393-3.357-8.393-8.393c0-43.646-43.646-83.934-92.328-83.934 c-5.036,0-8.393-3.357-8.393-8.393s3.357-8.393,8.393-8.393c57.915,0,109.115,47.003,109.115,100.721 C125.105,146.725,121.748,150.082,116.712,150.082z"/> </g> <g> <path style="fill:#FFFFFF;" d="M24.384,407.761l35.252-27.698L54.6,338.095l26.859-13.429l10.911-52.039l31.056-20.984 l-5.875-22.662l10.911-18.466c-5.036-5.875-9.233-11.751-12.59-18.466l-15.108,25.18l5.875,22.662l-31.056,20.984l-10.911,52.039 l-26.859,13.429l5.036,41.967L7.597,396.01l16.787,38.61l14.269-1.679L24.384,407.761z"/> <path style="fill:#FFFFFF;" d="M221.63,93.007c-36.092-20.984-82.256-8.393-103.239,27.698s-8.393,82.256,27.698,103.239 c14.269,8.393,30.216,10.911,45.325,9.233c-10.072-1.679-17.626-15.108-20.144-15.948c-36.092-20.984-48.682-57.915-27.698-94.007 s41.967-48.682,78.059-27.698"/> </g> <path style="fill:#FECC00;" d="M376.908,234.016h16.787h41.967v33.574l-16.787,16.787l16.787,33.574l-16.787,50.361l16.787,25.18 l-25.18,33.574l16.787,41.967l-25.18,16.787l-16.787-16.787l16.787-41.967l-25.18-33.574l16.787-25.18l-16.787-50.361 l16.787-33.574l-16.787-16.787V234.016z"/> <path style="fill:#FFA800;" d="M460.843,234.016h-25.18v33.574l-16.787,16.787l16.787,33.574l-16.787,50.361l16.787,25.18 l-25.18,33.574l16.787,41.967l-21.823,15.108l13.43,10.072l33.574-25.18l-16.787-41.967l25.18-33.574l-16.787-25.18l16.787-50.361 l-16.787-33.574l16.787-16.787V234.016z"/> <path style="fill:#FECC00;" d="M132.659,201.282c6.715,12.59,3.357,12.59,16.787,20.144c13.43,7.554,28.538,10.911,42.807,10.072 l-15.108,25.18l-22.662,5.875l-2.518,37.77l-39.449,35.252l1.679,30.216l-38.61,16.787l-5.875,44.485l-28.538,8.393l-16.787-30.216 l35.252-27.698L54.6,335.577l26.859-13.43l10.911-52.039l31.056-20.984l-5.875-22.662L132.659,201.282z"/> <path style="fill:#FFE100;" d="M452.449,114.83c0,5.875-4.197,10.072-10.072,10.072h-46.164c-5.875,0-10.072-5.036-10.072-10.072 v-12.59c0-5.875,5.036-10.072,10.072-10.072h46.164c5.875,0,10.072,5.036,10.072,10.072V114.83z M469.236,91.328 c0-43.646-50.361-41.967-50.361-41.967s-75.541-1.679-75.541,41.967c0,0-5.875,142.689,41.967,142.689h33.574h8.393 C475.112,234.016,469.236,91.328,469.236,91.328L469.236,91.328z"/> <path style="fill:#FFA800;" d="M493.577,91.328c0-41.128-68.826-41.967-74.702-41.967c5.875,0,49.521,1.679,49.521,41.967 c0,0,5.875,142.689-41.967,142.689h25.18C499.453,234.016,493.577,91.328,493.577,91.328"/> <path style="fill:#FFE100;" d="M230.023,155.118l-6.715,10.911c-2.518,5.036-9.233,6.715-14.269,4.197l-45.325-23.502 c-5.036-2.518-6.715-9.233-4.197-14.269l6.715-10.911c2.518-5.036,9.233-6.715,14.269-4.197l45.325,23.502 C230.863,144.207,232.541,150.082,230.023,155.118 M221.63,93.007c-36.092-20.984-57.075-8.393-78.059,27.698 s-8.393,82.256,27.698,103.239c5.875,3.357,47.003,26.02,78.059-27.698C270.312,160.154,257.722,113.99,221.63,93.007"/> <path d="M452.449,242.41h-67.148c-9.233,0-16.787-3.357-23.502-10.911c-30.216-31.056-26.859-128.42-26.859-140.17 c0-10.911,4.197-20.984,11.751-28.538c23.502-22.662,70.505-21.823,72.184-21.823c1.679,0,48.682-0.839,71.344,21.823 c8.393,7.554,11.751,17.626,11.751,28.538c0.839,10.911,3.357,109.115-26.859,140.17 C469.236,239.052,461.682,242.41,452.449,242.41z M418.036,57.754c-12.59,0-44.485,2.518-58.754,16.787 c-5.036,4.197-7.554,10.072-7.554,16.787l0,0c-0.839,28.538,0.839,105.757,21.823,128.42c3.357,3.357,7.554,5.036,11.751,5.036 h67.148c4.197,0,7.554-1.679,11.751-5.036c21.823-22.662,23.502-100.721,21.823-128.42c0-6.715-2.518-12.59-6.715-16.787 c-14.269-14.269-47.843-16.787-59.593-16.787C418.876,57.754,418.036,57.754,418.036,57.754z"/> <path d="M418.876,502.607c-1.679,0-3.357-0.839-5.036-1.679l-33.574-25.18c-3.357-2.518-4.197-6.715-2.518-10.072l15.108-37.771 l-22.662-30.216c-2.518-2.518-2.518-6.715,0-10.072l14.269-21.823l-15.108-46.164c-0.839-2.518-0.839-4.197,0.839-6.715 l14.269-28.538l-12.59-12.59c-2.518,0-3.357-1.679-3.357-4.197v-33.574c0-5.036,3.357-8.393,8.393-8.393h83.934 c5.036,0,8.393,3.357,8.393,8.393v33.574c0,2.518-0.839,4.197-2.518,5.875l-12.59,12.59l14.269,28.538 c0.839,1.679,0.839,4.197,0.839,6.715l-15.108,46.164l14.269,21.823c1.679,3.357,1.679,6.715,0,10.072l-22.662,30.216l15.108,37.77 c1.679,3.357,0,7.554-2.518,10.072l-33.574,25.18C422.233,501.767,420.554,502.607,418.876,502.607z M395.374,466.515 l23.502,17.626l23.502-17.626l-14.269-36.092c-0.839-2.518-0.839-5.875,0.839-8.393l21.823-28.538l-13.43-20.144 c-1.679-2.518-1.679-5.036-0.839-7.554l15.948-47.003l-15.108-30.216c-1.679-3.357-0.839-6.715,1.679-10.072l14.269-14.269V242.41 h-67.148v21.823l14.269,14.269c2.518,2.518,3.357,6.715,1.679,10.072l-15.108,30.216l15.948,47.003 c0.839,2.518,0.839,5.036-0.839,7.554l-15.108,20.144l21.823,28.538c1.679,2.518,2.518,5.036,0.839,8.393L395.374,466.515z"/> <path d="M418.876,351.525c-5.036,0-8.393-3.357-8.393-8.393V234.016c0-5.036,3.357-8.393,8.393-8.393s8.393,3.357,8.393,8.393 v109.115C427.269,348.167,423.912,351.525,418.876,351.525z"/> <path d="M442.377,133.295h-46.164c-10.911,0-19.305-8.393-19.305-18.466v-12.59c0-10.911,8.393-19.305,19.305-19.305h46.164 c10.072,0,18.466,8.393,18.466,18.466v12.59C460.843,124.902,452.449,133.295,442.377,133.295z M396.213,99.721 c-0.839,0-1.679,0.839-1.679,1.679v12.59c0,0.839,0.839,1.679,1.679,1.679h46.164c0.839,0,1.679-0.839,1.679-1.679V101.4 c0-0.839-0.839-1.679-1.679-1.679H396.213z"/> <path d="M209.04,176.941c-3.357,0-6.715-0.839-9.233-2.518l-40.289-22.662c-4.197-2.518-7.554-6.715-8.393-11.751 c-1.679-5.036-0.839-10.072,1.679-14.269l6.715-10.911c5.036-9.233,16.787-11.751,26.02-6.715l40.289,23.502 c9.233,5.036,11.751,16.787,6.715,26.02l-6.715,10.911C221.63,173.584,214.915,176.941,209.04,176.941z M175.466,122.384 c-0.839,0-1.679,0-1.679,0.839l-6.715,10.911c0,0.839,0,0.839,0,1.679c0,0,0,0.839,0.839,1.679l0,0l40.289,23.502 c0.839,0.839,2.518,0,2.518-0.839l5.875-10.911c0.839-0.839,0-2.518-0.839-2.518l-40.289-22.662 C175.466,122.384,175.466,122.384,175.466,122.384z"/> <path d="M91.531,323.826c-1.679,0-2.518,0-4.197-0.839c-4.197-2.518-5.036-7.554-3.357-11.751l54.557-94.007 c2.518-4.197,7.554-5.036,11.751-3.357c4.197,2.518,5.036,7.554,3.357,11.751l-54.557,94.846 C96.567,322.987,94.049,323.826,91.531,323.826z"/> <path d="M183.02,239.892c-14.269,0-28.538-4.197-41.967-10.911c-40.289-23.502-53.718-74.702-31.056-114.99l0,0 c10.911-19.305,29.377-33.574,51.2-39.449c22.662-5.875,44.485-2.518,64.63,8.393c19.305,10.911,33.574,29.377,39.449,51.2 c5.875,21.823,2.518,44.485-8.393,63.79c-10.911,19.305-29.377,33.574-51.2,39.449C198.128,239.052,190.574,239.892,183.02,239.892 z M125.105,122.384c-18.466,31.895-7.554,73.023,24.341,91.489c15.948,9.233,33.574,11.751,51.2,6.715s31.895-15.948,41.128-31.056 c9.233-15.948,11.751-33.574,6.715-51.2s-15.948-31.895-31.056-41.128c-15.948-9.233-33.574-11.751-51.2-6.715 C148.607,95.525,134.338,106.436,125.105,122.384L125.105,122.384z"/> <path d="M24.384,440.495c-3.357,0-6.715-1.679-7.554-5.036l-16.787-38.61c-1.679-3.357-0.839-7.554,2.518-10.072l31.895-25.18 l-4.197-36.931c-0.839-3.357,1.679-6.715,4.197-8.393l23.502-11.751l10.072-47.843c0.839-2.518,1.679-4.197,3.357-5.036 l26.02-17.626l-4.197-16.787c-0.839-2.518,0-4.197,0.839-6.715l15.108-25.18c1.679-2.518,4.197-4.197,7.554-4.197 c3.357,0,5.875,1.679,7.554,5.036c5.875,11.751,15.108,21.823,26.859,28.538s24.341,10.072,37.77,9.233 c3.357,0,5.875,1.679,7.554,4.197c1.679,2.518,1.679,5.875,0,8.393l-15.108,25.18c-0.839,1.679-3.357,3.357-5.036,4.197 l-16.787,4.197L157,301.164c0,2.518-0.839,4.197-2.518,5.875l-36.931,32.734l1.679,26.02c0,3.357-1.679,6.715-5.036,8.393 l-34.413,14.269l-5.875,40.289c0,3.357-3.357,5.875-7.554,6.715L24.384,440.495L24.384,440.495z M17.669,396.01l11.751,26.859 l28.538-3.357l5.875-38.61c0-2.518,2.518-5.036,5.036-6.715l32.734-14.269l-1.679-24.341c0-2.518,0.839-5.036,2.518-6.715 l36.931-32.734l1.679-33.574c0-3.357,2.518-6.715,5.875-7.554l19.305-5.036l5.875-10.072c-11.751-1.679-22.662-5.036-32.734-10.911 c-10.072-5.875-18.466-13.43-25.18-22.662l-5.875,10.072l5.036,19.305c0.839,3.357-0.839,7.554-3.357,9.233l-26.859,18.466 l-10.072,48.682c-0.839,2.518-2.518,5.036-4.197,5.875l-21.823,10.911l4.197,36.092c0,2.518-0.839,5.875-3.357,7.554L17.669,396.01 z"/> <path d="M242.613,217.229c-5.036,0-8.393-3.357-8.393-8.393c0-5.036,3.357-8.393,8.393-8.393c48.682,0,92.328-40.289,92.328-83.934 c0-5.036,3.357-8.393,8.393-8.393s8.393,3.357,8.393,8.393C351.728,170.226,300.528,217.229,242.613,217.229z"/> <path d="M393.695,57.754c-5.036,0-8.393-3.357-8.393-8.393C385.302,21.662,407.964-1,435.663-1c5.036,0,8.393,3.357,8.393,8.393 s-3.357,8.393-8.393,8.393c-18.466,0-33.574,15.108-33.574,33.574C402.089,54.397,398.731,57.754,393.695,57.754z"/> <path d="M108.318,150.082c-5.036,0-8.393-3.357-8.393-8.393c0-43.646-43.646-83.934-92.328-83.934 c-5.036,0-8.393-3.357-8.393-8.393s3.357-8.393,8.393-8.393c57.915,0,109.115,47.003,109.115,100.721 C116.712,146.725,113.354,150.082,108.318,150.082z"/> </g> </g>
</svg>